<svg xmlns="http://www.w3.org/2000/svg" fill="none" viewBox="0 0 145 221">
<path stroke="#7986A3" stroke-linecap="round" stroke-linejoin="round" stroke-width="1.5"
      d="M80.5684 1.95874C80.9626 7.57602 81.6533 16.1333 78.5493 28.1355C75.4453 40.1377 67.9956 69.1085 75.0314 97.4585C82.0671 125.808 86.8266 144.639 98.208 158.297C102.347 164.505 110.831 180.646 113.521 183.957C116.211 187.268 127.386 193.89 116.211 199.27C105.037 204.65 94.0693 214.583 78.5493 211.893C63.0292 209.203 21.2285 201.132 10.4679 201.132C-0.292656 201.132 3.27389 202.177 3.27389 203.509C3.27389 204.841 -0.0901334 206.663 4.11489 207.574C8.31992 208.485 30.3382 210.667 49.9111 213.021C69.4839 215.376 70.9555 215.082 73.4573 216.406C75.9591 217.73 78.6081 220.379 87.1436 217.142C95.6791 213.904 116.135 207.576 137.327 208.312C141.554 208.312 148.085 209.496 137.918 211.893C129.785 213.811 114.465 217.387 107.822 218.936"/>
<path stroke="#fff" stroke-dasharray="1000" stroke-linecap="round" stroke-linejoin="round" stroke-width="1.5"
      d="M80.5684 1.95874C80.9626 7.57602 81.6533 16.1333 78.5493 28.1355C75.4453 40.1377 67.9956 69.1085 75.0314 97.4585C82.0671 125.808 86.8266 144.639 98.208 158.297C102.347 164.505 110.831 180.646 113.521 183.957C116.211 187.268 127.386 193.89 116.211 199.27C105.037 204.65 94.0693 214.583 78.5493 211.893C63.0292 209.203 21.2285 201.132 10.4679 201.132C-0.292656 201.132 3.27389 202.177 3.27389 203.509C3.27389 204.841 -0.0901334 206.663 4.11489 207.574C8.31992 208.485 30.3382 210.667 49.9111 213.021C69.4839 215.376 70.9555 215.082 73.4573 216.406C75.9591 217.73 78.6081 220.379 87.1436 217.142C95.6791 213.904 116.135 207.576 137.327 208.312C141.554 208.312 148.085 209.496 137.918 211.893C129.785 213.811 114.465 217.387 107.822 218.936">
    <animate attributeName="stroke-dashoffset" dur="3s" repeatCount="indefinite" values="1000;0"/>
</path>
<line x1="98.441" x2="98.441" y2="100%" stroke="#595D66" stroke-opacity=".5">
    <animate attributeName="x1" dur="3s" repeatCount="indefinite"
             values="80.4408;80.6802;76.4408;72.3417;76.5951;84.532;98.1176;111.274;117.352;118.353;105.625;99.1901;96.5445;90.8958;84.4604;57.6468;14.3873;3.44734;1.99995;3.44734;9.1676;29.1885;64.1535;74.6607;80.8815;87.5312;114.845;138.088;140.733;123.644"/>
    <animate attributeName="x2" dur="3s" repeatCount="indefinite"
             values="80.4408;80.6802;76.4408;72.3417;76.5951;84.532;98.1176;111.274;117.352;118.353;105.625;99.1901;96.5445;90.8958;84.4604;57.6468;14.3873;3.44734;1.99995;3.44734;9.1676;29.1885;64.1535;74.6607;80.8815;87.5312;114.845;138.088;140.733;123.644"/>
</line>
<line x2="100%" y1="2" y2="2" stroke="#595D66" stroke-opacity=".5">
    <animate attributeName="y1" dur="3s" repeatCount="indefinite"
             values="2;14.1279;36.7083;64.2573;103.365;131.823;158.136;180.588;188.024;198.178;205;208.504;210.005;211.435;212.504;208.504;201.639;201.639;206.504;207.435;208.504;210.935;214.935;217.366;218.936;217.366;210.005;208.504;211.435;215.366"/>
    <animate attributeName="y2" dur="3s" repeatCount="indefinite"
             values="2;14.1279;36.7083;64.2573;103.365;131.823;158.136;180.588;188.024;198.178;205;208.504;210.005;211.435;212.504;208.504;201.639;201.639;206.504;207.435;208.504;210.935;214.935;217.366;218.936;217.366;210.005;208.504;211.435;215.366"/>
</line>
</svg>
