<svg xmlns="http://www.w3.org/2000/svg" fill="none" viewBox="0 0 157 257">
    <g style="transform:scaleY(-1);transform-origin:center">
        <circle cx="98.441" cy="2" r="2" fill="#7986A3"/>
        <circle cx="97.689" cy="22.199" r="2" fill="#7986A3"/>
        <circle cx="96.587" cy="50.959" r="2" fill="#7986A3"/>
        <circle cx="96.772" cy="88.305" r="2" fill="#7986A3"/>
        <circle cx="106.056" cy="128.5" r="2" fill="#7986A3"/>
        <circle cx="124.855" cy="179.674" r="2" fill="#7986A3"/>
        <circle cx="129.22" cy="191.968" r="2" fill="#7986A3"/>
        <circle cx="122.454" cy="205.789" r="2" fill="#7986A3"/>
        <circle cx="77.352" cy="211.027" r="2" fill="#7986A3"/>
        <circle cx="49.273" cy="213.937" r="2" fill="#7986A3"/>
        <circle cx="37.27" cy="218.374" r="2" fill="#7986A3"/>
        <circle cx="25.413" cy="220.847" r="2" fill="#7986A3"/>
        <circle cx="12.682" cy="220.847" r="2" fill="#7986A3"/>
        <circle cx="4.244" cy="219.974" r="2" fill="#7986A3"/>
        <circle cx="8.682" cy="229.14" r="2" fill="#7986A3"/>
        <circle cx="47.672" cy="240.416" r="2" fill="#7986A3"/>
        <circle cx="61.13" cy="240.852" r="2" fill="#7986A3"/>
        <circle cx="82.787" cy="243.227" r="2" fill="#7986A3"/>
        <circle cx="107.665" cy="247.227" r="2" fill="#7986A3"/>
        <circle cx="130.362" cy="245.627" r="2" fill="#7986A3"/>
        <circle cx="146.584" cy="241.627" r="2" fill="#7986A3"/>
        <circle cx="154.368" cy="240.416" r="2" fill="#7986A3"/>
        <circle cx="150.584" cy="244.416" r="2" fill="#7986A3"/>
        <circle cx="147.165" cy="247.227" r="2" fill="#7986A3"/>
        <circle cx="146.219" cy="250.574" r="2" fill="#7986A3"/>
        <circle cx="150.584" cy="253" r="2" fill="#7986A3"/>
        <circle cx="152.244" cy="254.45" r="2" fill="#7986A3"/>
        <circle cx="143.165" cy="255" r="2" fill="#7986A3"/>
        <circle cx="109.193" cy="252.45" r="2" fill="#7986A3"/>
        <circle cx="66.564" cy="242.852" r="2" fill="#7986A3"/>
        <circle cx="98.441" cy="2" r="2" fill="#fff">
            <animate fill="freeze" attributeName="cx" calcMode="discrete" dur="3s" repeatCount="indefinite"
                     values="98.4408;97.6893;96.5867;96.7719;106.056;124.855;129.22;122.454;77.3524;49.2729;37.27;25.4125;12.6822;4.24374;8.68216;47.6725;61.1303;82.7865;107.665;130.362;146.584;154.368;150.584;147.165;146.219;150.584;152.244;143.165;109.193;66.5645"/>
            <animate fill="freeze" attributeName="cy" calcMode="discrete" dur="3s" repeatCount="indefinite"
                     values="2;22.1987;50.9592;88.3046;128.5;179.674;191.968;205.789;211.027;213.937;218.374;220.847;220.847;219.974;229.14;240.416;240.852;243.227;247.227;245.627;241.627;240.416;244.416;247.227;250.574;253;254.45;255;252.45;242.852"/>
        </circle>
    </g>
</svg>
