<svg width="81" height="149" viewBox="0 0 81 149" fill="none" xmlns="http://www.w3.org/2000/svg">
    <path id="Vector 30"
          d="M1 133.713C4.0916 130.842 5.41658 127.088 8.94984 130.842C12.4831 134.596 39.2034 143.429 44.9449 144.754C50.6865 146.079 63.2737 152.262 75.1985 142.987C87.1233 133.713 74.9777 128.413 59.078 125.322C43.1783 122.23 26.837 118.476 23.0829 116.047C19.3288 113.618 9.17067 112.514 18.8871 98.3817C28.6036 84.2492 37.2159 66.5836 39.6451 61.0631C42.0742 55.5426 55.1031 24.6278 57.9739 19.9905C60.8446 15.3533 66.807 2.76656 67.0278 1"
          stroke="#7986A3" stroke-width="1.5" stroke-linecap="round" stroke-linejoin="round"/>
    <path stroke="#fff" stroke-dasharray="500" stroke-linecap="round" stroke-linejoin="round" stroke-width="1.5"
          d="M1 133.713C4.0916 130.842 5.41658 127.088 8.94984 130.842C12.4831 134.596 39.2034 143.429 44.9449 144.754C50.6865 146.079 63.2737 152.262 75.1985 142.987C87.1233 133.713 74.9777 128.413 59.078 125.322C43.1783 122.23 26.837 118.476 23.0829 116.047C19.3288 113.618 9.17067 112.514 18.8871 98.3817C28.6036 84.2492 37.2159 66.5836 39.6451 61.0631C42.0742 55.5426 55.1031 24.6278 57.9739 19.9905C60.8446 15.3533 66.807 2.76656 67.0278 1">
        <animate attributeName="stroke-dashoffset" dur="3s" repeatCount="indefinite" values="500;0"/>
    </path>
</svg>
