<svg xmlns="http://www.w3.org/2000/svg" fill="none" viewBox="0 0 157 257">
    <path stroke="#7986A3" stroke-linecap="round" stroke-linejoin="round" stroke-width="1.5"
          d="M98.455 2c0 10.559-2.357 46.635-2.357 75.378 0 28.743 16.499 71.272 29.168 103.828 3.83 8.799 15.026 27.863-26.811 29.33-31.23 1.095-40.659-1.173-56.274 5.573-9.723 4.399-21.508 5.866-30.936 4.399-9.428-1.466-13.258 0-8.25 4.693 5.009 4.693 30.347 16.131 57.453 15.545 27.105-.587 25.043 7.039 50.97 6.159 25.928-.88 28.579-3.813 34.177-4.986 5.598-1.173 14.732-3.813 4.714 2.64-3.83 2.346-7.955 5.279-1.178 7.625 6.776 2.347 2.651 3.227-3.536 2.64-6.187-.587-38.891-2.346-50.381-4.399-11.49-2.054-31.23-7.92-39.775-12.612-6.835-3.755-14.044-6.453-16.794-7.333"/>
    <path stroke="#fff" stroke-dasharray="1000" stroke-linecap="round" stroke-linejoin="round" stroke-width="1.5"
          d="M98.455 2c0 10.559-2.357 46.635-2.357 75.378 0 28.743 16.499 71.272 29.168 103.828 3.83 8.799 15.026 27.863-26.811 29.33-31.23 1.095-40.659-1.173-56.274 5.573-9.723 4.399-21.508 5.866-30.936 4.399-9.428-1.466-13.258 0-8.25 4.693 5.009 4.693 30.347 16.131 57.453 15.545 27.105-.587 25.043 7.039 50.97 6.159 25.928-.88 28.579-3.813 34.177-4.986 5.598-1.173 14.732-3.813 4.714 2.64-3.83 2.346-7.955 5.279-1.178 7.625 6.776 2.347 2.651 3.227-3.536 2.64-6.187-.587-38.891-2.346-50.381-4.399-11.49-2.054-31.23-7.92-39.775-12.612-6.835-3.755-14.044-6.453-16.794-7.333">
        <animate attributeName="stroke-dashoffset" dur="3s" repeatCount="indefinite" values="1000;0"/>
    </path>
</svg>
