<svg xmlns="http://www.w3.org/2000/svg" fill="none" viewBox="0 0 157 257">
    <g style="transform:scaleY(-1);transform-origin:center">
        <circle id="Ellipse 2108" cx="117.441" cy="2" r="2" fill="#7986A3"/>
        <circle id="Ellipse 2109" cx="119.441" cy="4.80981" r="2" fill="#7986A3"/>
        <circle id="Ellipse 2110" cx="132.389" cy="28.0605" r="2" fill="#7986A3"/>
        <circle id="Ellipse 2111" cx="142.471" cy="51.0359" r="2" fill="#7986A3"/>
        <circle id="Ellipse 2112" cx="146.471" cy="89.2178" r="2" fill="#7986A3"/>
        <circle id="Ellipse 2113" cx="148.179" cy="114.177" r="2" fill="#7986A3"/>
        <circle id="Ellipse 2114" cx="153.193" cy="129.108" r="2" fill="#7986A3"/>
        <circle id="Ellipse 2115" cx="167.739" cy="161.725" r="2" fill="#7986A3"/>
        <circle id="Ellipse 2116" cx="166.471" cy="171.918" r="2" fill="#7986A3"/>
        <circle id="Ellipse 2117" cx="147.298" cy="182.992" r="2" fill="#7986A3"/>
        <circle id="Ellipse 2118" cx="114.515" cy="184.7" r="2" fill="#7986A3"/>
        <circle id="Ellipse 2119" cx="65.2588" cy="173.24" r="2" fill="#7986A3"/>
        <circle id="Ellipse 2120" cx="48.9501" cy="170.761" r="2" fill="#7986A3"/>
        <circle id="Ellipse 2121" cx="22.669" cy="178.144" r="2" fill="#7986A3"/>
        <circle id="Ellipse 2122" cx="13.578" cy="180.144" r="2" fill="#7986A3"/>
        <circle id="Ellipse 2123" cx="2.25775" cy="181.742" r="2" fill="#7986A3"/>
        <circle id="Ellipse 2124" cx="2.75362" cy="183.742" r="2" fill="#7986A3"/>
        <circle id="Ellipse 2125" cx="14.379" cy="193.108" r="2" fill="#7986A3"/>
        <circle id="Ellipse 2126" cx="44.1312" cy="202.309" r="2" fill="#7986A3"/>
        <circle id="Ellipse 2127" cx="66.0597" cy="206.59" r="2" fill="#7986A3"/>
        <circle id="Ellipse 2128" cx="91.2389" cy="207.802" r="2" fill="#7986A3"/>
        <circle id="Ellipse 2129" cx="123.415" cy="202.369" r="2" fill="#7986A3"/>
        <circle id="Ellipse 2130" cx="137.024" cy="199.119" r="2" fill="#7986A3"/>
        <circle id="Ellipse 2131" cx="145.298" cy="200" r="2" fill="#7986A3"/>
        <circle id="Ellipse 2132" cx="150.633" cy="202.369" r="2" fill="#7986A3"/>
        <circle id="Ellipse 2133" cx="164.793" cy="203" r="2" fill="#7986A3"/>
        <circle id="Ellipse 2134" cx="188.595" cy="199.474" r="2" fill="#7986A3"/>
        <circle id="Ellipse 2135" cx="195.586" cy="195.474" r="2" fill="#7986A3"/>
        <circle id="Ellipse 2136" cx="178.947" cy="197.119" r="2" fill="#7986A3"/>
        <circle id="Ellipse 2137" cx="137.404" cy="193.474" r="2" fill="#7986A3"/>
        <circle id="Ellipse 2138" cx="118.515" cy="192.592" r="2" fill="#7986A3"/>
        <circle id="Ellipse 2139" cx="90.8567" cy="195.119" r="2" fill="#7986A3"/>
        <circle id="Ellipse 2140" cx="79.1761" cy="199.119" r="2" fill="#7986A3"/>
        <circle id="Ellipse 2141" cx="68.6527" cy="200.309" r="2" fill="#7986A3"/>
        <circle id="Ellipse 2142" cx="57.6884" cy="196.309" r="2" fill="#7986A3"/>
        <circle cx="117.441" cy="2" r="2" fill="#fff">
            <animate fill="freeze" attributeName="cx" calcMode="discrete" dur="3s" repeatCount="indefinite"
                     values="117.441;119.441;132.389;142.471;146.471;148.179;153.193;167.739;166.471;147.298;114.515;65.2588;48.9501;22.669;13.578;2.25775;2.75362;14.379;44.1312;66.0597;91.2389;123.415;137.024;145.298;150.633;164.793;188.595;195.586;178.947;137.404;118.515;90.8567;79.1761;68.6527;57.6884"/>
            <animate fill="freeze" attributeName="cy" calcMode="discrete" dur="3s" repeatCount="indefinite"
                     values="2;4.80981;28.0605;51.0359;89.2178;114.177;129.108;161.725;171.918;182.992;184.7;173.24;170.761;178.144;180.144;181.742;183.742;193.108;202.309;206.59;207.802;202.369;199.119;200;202.369;203;199.474;195.474;197.119;193.474;192.592;195.119;199.119;200.309;196.309"/>
        </circle>
    </g>
</svg>
