<svg width="95" height="177" viewBox="0 0 95 177" fill="none" xmlns="http://www.w3.org/2000/svg">
    <g id="Pattern">
        <path id="Vector 11"
              d="M74.2213 2.19888C70.0641 8.01894 58.9783 31.1606 54.9596 39.1979C50.941 47.2351 48.8624 66.9125 43.4581 78.6912C38.0537 90.4699 33.0651 96.9828 30.0165 103.219C26.9679 109.454 21.425 114.997 14.6349 118.184C7.84482 121.372 1.74761 123.866 14.6349 133.012C27.5222 142.158 47.3381 144.236 82.8128 143.959C93.6215 143.959 98.6101 145.622 86.6929 154.906C82.8128 157.678 81.0114 163.359 80.1799 165.161C79.3485 166.962 78.5171 169.041 79.3485 172.089C80.1799 175.138 80.1799 177.078 73.2513 175.138C66.3226 173.198 50.1096 167.794 40.6866 160.865C31.2637 153.936 25.0279 149.779 18.2378 150.056C13.5229 150.249 11.4477 148.809 10.4777 147.839C8.81483 146.176 7.29052 146.592 5.62765 149.363C4.29735 151.581 2.20951 151.95 1.33189 151.858"
              stroke="#7986A3" stroke-width="1.5" stroke-linecap="round" stroke-linejoin="round"/>
        <path stroke="#fff" stroke-dasharray="500" stroke-linecap="round" stroke-linejoin="round" stroke-width="1.5"
              d="M74.2213 2.19888C70.0641 8.01894 58.9783 31.1606 54.9596 39.1979C50.941 47.2351 48.8624 66.9125 43.4581 78.6912C38.0537 90.4699 33.0651 96.9828 30.0165 103.219C26.9679 109.454 21.425 114.997 14.6349 118.184C7.84482 121.372 1.74761 123.866 14.6349 133.012C27.5222 142.158 47.3381 144.236 82.8128 143.959C93.6215 143.959 98.6101 145.622 86.6929 154.906C82.8128 157.678 81.0114 163.359 80.1799 165.161C79.3485 166.962 78.5171 169.041 79.3485 172.089C80.1799 175.138 80.1799 177.078 73.2513 175.138C66.3226 173.198 50.1096 167.794 40.6866 160.865C31.2637 153.936 25.0279 149.779 18.2378 150.056C13.5229 150.249 11.4477 148.809 10.4777 147.839C8.81483 146.176 7.29052 146.592 5.62765 149.363C4.29735 151.581 2.20951 151.95 1.33189 151.858">
            <animate attributeName="stroke-dashoffset" dur="3s" repeatCount="indefinite" values="500;0"/>
        </path>
        <circle id="Ellipse 2108" cx="74.4408" cy="2" r="2" fill="#fff"/>
    </g>
</svg>
