<svg width="131" height="160" viewBox="0 0 131 160" fill="none" xmlns="http://www.w3.org/2000/svg">
    <g id="Pattern">
        <path id="Vector 15"
              d="M27.4126 2.07812C25.7846 7.05773 24.4406 7.37626 13.1357 27.2456C1.83072 47.115 -3.47918 48.4852 8.16833 81.7149C13.1357 96.9595 14.1634 99.1862 15.8763 103.811C17.5891 108.436 20.3297 114.773 32.1485 119.398C43.9673 124.023 48.4208 126.078 56.9851 133.615C60.9247 136.869 64.0079 138.753 66.2346 139.439C68.4614 140.124 73.0861 142.008 63.494 144.235C53.902 146.461 45.6802 144.235 42.0832 144.235C38.4861 144.235 33.005 143.55 39.3426 149.545C45.6802 155.54 51.1614 160.85 71.7158 158.794C92.2703 156.739 96.3812 154.854 103.918 148.517C111.454 142.179 121.389 138.411 117.449 146.975C113.51 155.54 109.091 153.903 102.376 153.998C95.661 154.093 88.8445 154.683 83.5346 155.711C78.2247 156.739 75.3128 159.822 67.9475 155.711C61.6099 153.998 57.8416 158.965 71.7158 148.517C79.595 144.235 106.487 135.499 120.875 135.67C135.263 135.842 129.953 137.041 117.449 138.24C104.945 139.439 95.1821 141.494 90.0435 144.235C84.9049 146.975 79.0812 145.434 66.2346 146.975C53.3881 148.517 43.4535 146.119 32.1485 143.378C20.8436 140.638 21.0576 147.32 21.6254 149.269C23.0496 154.159 39.9494 152.64 34.0327 149.545"
              stroke="#7986A3" stroke-width="1.5" stroke-linecap="round" stroke-linejoin="round"/>
        <path stroke="#fff" stroke-dasharray="1000" stroke-linecap="round" stroke-linejoin="round" stroke-width="1.5"
              d="M27.4126 2.07812C25.7846 7.05773 24.4406 7.37626 13.1357 27.2456C1.83072 47.115 -3.47918 48.4852 8.16833 81.7149C13.1357 96.9595 14.1634 99.1862 15.8763 103.811C17.5891 108.436 20.3297 114.773 32.1485 119.398C43.9673 124.023 48.4208 126.078 56.9851 133.615C60.9247 136.869 64.0079 138.753 66.2346 139.439C68.4614 140.124 73.0861 142.008 63.494 144.235C53.902 146.461 45.6802 144.235 42.0832 144.235C38.4861 144.235 33.005 143.55 39.3426 149.545C45.6802 155.54 51.1614 160.85 71.7158 158.794C92.2703 156.739 96.3812 154.854 103.918 148.517C111.454 142.179 121.389 138.411 117.449 146.975C113.51 155.54 109.091 153.903 102.376 153.998C95.661 154.093 88.8445 154.683 83.5346 155.711C78.2247 156.739 75.3128 159.822 67.9475 155.711C61.6099 153.998 57.8416 158.965 71.7158 148.517C79.595 144.235 106.487 135.499 120.875 135.67C135.263 135.842 129.953 137.041 117.449 138.24C104.945 139.439 95.1821 141.494 90.0435 144.235C84.9049 146.975 79.0812 145.434 66.2346 146.975C53.3881 148.517 43.4535 146.119 32.1485 143.378C20.8436 140.638 21.0576 147.32 21.6254 149.269C23.0496 154.159 39.9494 152.64 34.0327 149.545">
            <animate attributeName="stroke-dashoffset" dur="3s" repeatCount="indefinite" values="1000;0"/>
        </path>
        <circle id="Ellipse 2108" cx="27.4408" cy="2" r="2" fill="#fff"/>
    </g>
</svg>
