<svg width="95" height="253" viewBox="0 0 95 253" fill="none" xmlns="http://www.w3.org/2000/svg">
    <g id="Pattern">
        <path id="Vector 13"
              d="M30.4347 2.01978C28.7155 8.89646 20.4323 50.4689 16.8377 63.2845C13.2431 76.1002 0.271189 111.109 1.3652 122.986C2.45922 134.864 1.05263 139.709 7.92929 163.309C11.5239 174.874 12.3053 181.438 13.0868 188.158C13.8682 194.879 20.1197 208.007 37.9365 212.852C55.7533 217.697 69.5066 227.387 72.6324 235.514C75.1459 242.049 78.8839 240.827 82.7911 241.296C88.2612 241.296 105.297 246.766 81.6971 250.986C70.7569 252.705 61.3797 250.986 59.3479 250.986C57.3162 250.986 46.423 247.815 60.5982 243.484C74.7735 239.153 76.227 237.545 61.8485 237.076"
              stroke="#7986A3" stroke-width="1.5" stroke-linecap="round" stroke-linejoin="round"/>
        <path stroke="#fff" stroke-dasharray="700" stroke-linecap="round" stroke-linejoin="round" stroke-width="1.5"
              d="M30.4347 2.01978C28.7155 8.89646 20.4323 50.4689 16.8377 63.2845C13.2431 76.1002 0.271189 111.109 1.3652 122.986C2.45922 134.864 1.05263 139.709 7.92929 163.309C11.5239 174.874 12.3053 181.438 13.0868 188.158C13.8682 194.879 20.1197 208.007 37.9365 212.852C55.7533 217.697 69.5066 227.387 72.6324 235.514C75.1459 242.049 78.8839 240.827 82.7911 241.296C88.2612 241.296 105.297 246.766 81.6971 250.986C70.7569 252.705 61.3797 250.986 59.3479 250.986C57.3162 250.986 46.423 247.815 60.5982 243.484C74.7735 239.153 76.227 237.545 61.8485 237.076">
            <animate attributeName="stroke-dashoffset" dur="3s" repeatCount="indefinite" values="700;0"/>
        </path>
        <circle id="Ellipse 2108" cx="30.4408" cy="2" r="2" fill="#fff"/>
    </g>
</svg>
