<svg width="300" height="300" viewBox="0 0 300 300" fill="none" xmlns="http://www.w3.org/2000/svg">
<rect width="300" height="300" fill="#070E1D"/>
<path d="M140.324 230C133.879 230 128.858 224.477 129.544 218.144L134.421 173.162C134.604 171.473 133.265 170 131.546 170L94.6148 170C92.9186 170 91.3079 169.264 90.2093 167.987L86.3765 163.53C84.6067 161.472 84.5362 158.471 86.2074 156.334L153.302 70.5549C153.576 70.2049 153.998 70 154.445 70H159.559C166.003 70 171.025 75.5229 170.338 81.8557L165.462 126.838C165.279 128.527 166.618 130 168.336 130H205.297C206.976 130 208.573 130.722 209.671 131.978L213.593 136.462C215.393 138.52 215.475 141.547 213.789 143.697L146.58 229.446C146.306 229.796 145.884 230 145.437 230H140.324Z" fill="#202B43"/>
</svg>
