<svg id="Tiktok--Streamline-Atlas" xmlns="http://www.w3.org/2000/svg" viewBox="-0.5 -0.5 16 16" height="16" width="16">
  <desc>
    Tiktok Streamline Icon: https://streamlinehq.com
  </desc>
  <defs></defs>
  <path d="M8.0875 1.00625v8.85625a1.76875 1.76875 0 0 1 -1.76875 1.76875 1.76875 1.76875 0 0 1 -1.76875 -1.76875 1.775 1.775 0 0 1 1.76875 -1.775V5.73125a4.1312500000000005 4.1312500000000005 0 0 0 -4.1312500000000005 4.1312500000000005 4.1312500000000005 4.1312500000000005 0 0 0 4.1312500000000005 4.1312500000000005 4.1312500000000005 4.1312500000000005 0 0 0 4.1312500000000005 -4.1312500000000005V5.73125l0.125 0.0625a5.05 5.05 0 0 0 2.2375 0.525V3.95625l-0.06875 0a3.025 3.025 0 0 1 -2.29375 -2.9375h-2.3625Z" fill="none" stroke="#000000" stroke-miterlimit="10" stroke-width="1"></path>
</svg>