<svg xmlns="http://www.w3.org/2000/svg" version="1.1" xmlns:xlink="http://www.w3.org/1999/xlink" width="200" height="200"><svg width="200" height="200" viewBox="0 0 200 200" fill="none" xmlns="http://www.w3.org/2000/svg">
<g clip-path="url(#clip0_1017_4)">
<g clip-path="url(#clip1_1017_4)">
<path d="M90.5535 168.416C91.0619 166.186 93.0759 165.011 94.9973 163.988C100.505 161.056 104.834 160.072 104.324 152.449C104.082 148.818 103.771 145.134 103.735 141.486C100.961 139.689 98.9976 136.491 97.1457 133.18C98.0041 133.484 98.8724 133.767 99.7464 134.031C100.51 135.319 101.24 136.427 101.949 137.168C102.52 137.77 103.098 138.259 103.677 138.662C103.642 137.47 103.711 136.21 104.616 135.479C104.828 135.31 105.232 135.673 105.083 135.894C104.598 136.605 104.533 137.844 104.668 139.266C107.232 140.59 109.83 140.214 112.362 139.021C112.871 138.249 113.518 137.604 114.341 137.145C114.214 137.218 114.025 137.004 114.096 136.89C114.147 136.811 114.195 136.732 114.244 136.651C114.469 136.667 114.697 136.689 114.922 136.7C114.921 136.709 114.93 136.722 114.931 136.724C114.941 137.038 114.921 137.304 114.896 137.571C115.279 137.317 115.655 137.036 116.033 136.761C116.399 136.78 116.763 136.8 117.128 136.813C118.323 136.855 119.526 136.878 120.731 136.879C118.473 138.859 116.228 140.821 113.529 141.966C112.78 144.55 112.873 147.241 113.132 149.897C113.479 153.39 114.551 157.285 115.013 161.042C116.592 161.697 118.71 161.446 120.2 161.592C122.454 161.811 124.67 162.151 126.855 162.735C128.52 163.176 132.005 163.807 132.592 165.739C132.644 165.911 132.555 166.041 132.439 166.156C131.485 167.09 129.9 167.364 128.261 167.329C130.846 168.432 134.624 170.685 134.698 173.423C134.767 175.999 131.164 174.475 129.843 173.894C127.044 172.661 124.007 171.456 120.988 170.879C120.426 170.773 119.824 170.701 119.212 170.634C119.069 170.572 118.919 170.508 118.764 170.445C118.286 170.467 117.817 170.492 117.412 170.494C115.51 170.502 115.644 171.425 116.217 172.409C116.303 172.498 116.383 172.574 116.442 172.637C117.023 173.237 117.677 174.018 118.281 174.892C118.494 175.26 118.711 175.624 118.919 175.996C118.951 176.016 118.982 176.035 119.012 176.057C119.946 177.692 120.557 179.506 120.156 181.056C119.909 181.544 119.398 181.801 118.459 181.56C116.148 180.965 114.479 179.264 112.917 177.577C112.007 176.597 111.143 175.586 110.291 174.561C108.779 173.269 106.963 172.094 105.433 171.304C103.959 170.951 102.479 170.688 101.039 170.26C99.7085 170.29 98.3885 170.505 97.056 170.496C94.8472 170.761 92.6926 170.788 91.2985 169.796C90.8562 169.475 90.4201 169.002 90.5535 168.416Z" fill="black"></path>
<path d="M92.3431 168.357C93.0884 169.93 95.944 168.87 97.1791 168.711C98.5051 168.537 99.8161 168.567 101.097 168.743C102.575 168.902 104.046 169.298 105.549 170.027C105.749 170.125 105.927 170.257 106.118 170.369C107.512 171.105 108.806 172.035 109.937 173.162C110.636 173.856 116.921 181.841 118.169 178.586C118.171 178.576 118.171 178.569 118.174 178.563C118.147 178.522 118.127 178.483 118.124 178.449C117.936 176.489 116.934 175.179 115.742 173.678C115.33 173.16 114.78 172.52 114.442 171.835C114.362 171.705 114.286 171.576 114.203 171.45C114.083 171.261 113.955 171.044 113.83 170.829C113.647 170.468 113.502 170.099 113.403 169.736C116.249 168.456 120.202 168.975 122.984 169.788C125.812 170.615 128.359 172.256 131.206 172.921C131.619 173.016 132.142 172.74 132.026 172.248C131.413 169.665 128.122 168.55 125.849 167.698C124.366 167.141 122.862 166.696 121.34 166.316C123.541 164.976 127.839 167.385 130.239 165.979C130.707 165.703 130.694 165.098 130.194 164.87C127.178 163.492 123.851 163.232 120.498 163.11C120.221 163.09 119.944 163.056 119.669 163.04C119.157 163.01 118.652 162.986 118.153 162.959C115.753 162.654 113.746 161.992 112.325 160.511C111.625 157.339 111.177 154.107 110.854 150.883C110.647 148.805 110.429 145.608 110.969 142.744C110.724 142.793 110.484 142.843 110.23 142.873C108.27 143.126 106.602 142.863 105.14 142.237C105.557 144.275 106.091 146.245 106.237 147.332C106.515 149.42 106.918 151.629 107.009 153.794C106.786 155.111 106.453 156.397 105.949 157.607C104.915 160.095 103.374 161.905 101.435 163.438C99.1928 164.234 96.9481 165.011 94.7698 165.966C94.0979 166.258 91.8152 167.246 92.3431 168.357Z" fill="white"></path>
<path d="M58.8451 177.171C59.3537 174.936 61.3687 173.763 63.2904 172.742C68.7998 169.81 73.127 168.826 72.6156 161.204C72.3733 157.575 72.0641 153.891 72.0257 150.238C69.253 148.444 67.2896 145.246 65.4396 141.936C66.2972 142.239 67.1628 142.523 68.039 142.786C68.8026 144.072 69.5328 145.181 70.2402 145.923C70.8127 146.525 71.3888 147.011 71.9688 147.417C71.9352 146.226 72.0026 144.965 72.9088 144.234C73.1195 144.063 73.5279 144.428 73.375 144.648C72.8907 145.361 72.8257 146.599 72.9586 148.02C75.5235 149.345 78.1211 148.968 80.6555 147.773C81.1638 147.001 81.8101 146.355 82.6302 145.902C82.504 145.971 82.3171 145.758 82.3882 145.643C82.438 145.563 82.4864 145.485 82.5358 145.406C82.762 145.422 82.9869 145.44 83.2139 145.457C83.2149 145.462 83.2236 145.475 83.2242 145.482C83.2334 145.793 83.2113 146.059 83.1904 146.325C83.5724 146.072 83.947 145.787 84.3234 145.517C84.691 145.533 85.057 145.554 85.4205 145.567C86.6154 145.607 87.8179 145.63 89.0236 145.634C86.7665 147.614 84.5217 149.575 81.8218 150.721C81.0732 153.305 81.1635 155.996 81.4262 158.651C81.773 162.145 82.843 166.038 83.3068 169.796C84.886 170.446 87.0007 170.198 88.4931 170.344C90.7441 170.566 92.9645 170.905 95.1472 171.489C96.814 171.931 100.297 172.559 100.884 174.492C100.938 174.665 100.85 174.792 100.733 174.909C99.778 175.845 98.1928 176.115 96.5539 176.081C99.1389 177.187 102.918 179.439 102.991 182.178C103.06 184.753 99.4587 183.229 98.1359 182.645C95.3362 181.412 92.3004 180.21 89.2807 179.632C88.7174 179.526 88.1162 179.452 87.5032 179.385C87.3624 179.326 87.2117 179.262 87.0566 179.197C86.5781 179.221 86.1076 179.246 85.7038 179.248C83.8043 179.254 83.939 180.178 84.5109 181.162C84.5973 181.251 84.6762 181.33 84.7353 181.392C85.3142 181.99 85.9697 182.77 86.574 183.643C86.7885 184.01 87.0047 184.378 87.2138 184.749C87.2449 184.77 87.2737 184.788 87.3072 184.809C88.2398 186.445 88.8507 188.258 88.4504 189.81C88.2016 190.296 87.6937 190.555 86.7531 190.312C84.4437 189.719 82.7748 188.014 81.209 186.33C80.3026 185.348 79.4371 184.339 78.5862 183.314C77.0721 182.023 75.2568 180.848 73.7286 180.057C72.2545 179.705 70.7717 179.439 69.3343 179.014C68.0033 179.044 66.6839 179.256 65.3506 179.249C63.1429 179.514 60.9857 179.543 59.595 178.549C59.1504 178.229 58.712 177.757 58.8451 177.171Z" fill="black"></path>
<path d="M60.635 177.111C61.3798 178.682 64.2355 177.626 65.4727 177.466C66.797 177.295 68.1091 177.321 69.3903 177.5C70.8678 177.657 72.3383 178.053 73.843 178.782C74.0448 178.879 74.2194 179.012 74.4108 179.122C75.8043 179.859 77.0989 180.79 78.2293 181.917C78.9274 182.61 85.2131 190.595 86.4611 187.34C86.462 187.331 86.4643 187.324 86.4656 187.318C86.4399 187.277 86.4199 187.241 86.416 187.205C86.2276 185.241 85.227 183.936 84.0342 182.434C83.6225 181.914 83.0735 181.275 82.732 180.587C82.6552 180.461 82.5785 180.333 82.4966 180.202C82.3728 180.016 82.2479 179.799 82.1237 179.583C81.9399 179.22 81.7967 178.854 81.6939 178.491C84.5432 177.212 88.4948 177.731 91.2786 178.542C94.1059 179.369 96.6517 181.008 99.5007 181.677C99.9132 181.772 100.435 181.492 100.319 181.004C99.7061 178.417 96.4156 177.305 94.1441 176.452C92.6622 175.895 91.1536 175.451 89.6337 175.072C91.8347 173.732 96.1325 176.139 98.531 174.733C99.0031 174.457 98.9874 173.852 98.4875 173.625C95.4724 172.248 92.1445 171.986 88.7918 171.866C88.5153 171.845 88.2382 171.811 87.9641 171.795C87.4504 171.764 86.9451 171.741 86.447 171.714C84.0468 171.407 82.0373 170.747 80.6169 169.263C79.9185 166.094 79.4703 162.862 79.1457 159.638C78.9397 157.563 78.7212 154.36 79.2623 151.5C79.0182 151.546 78.7748 151.595 78.5203 151.629C76.5623 151.881 74.8916 151.618 73.4311 150.992C73.8517 153.029 74.7463 165.152 74.2432 166.361C73.2082 168.851 71.6662 170.661 69.7301 172.193C67.4861 172.99 65.2395 173.766 63.0622 174.719C62.3906 175.013 60.1085 175.998 60.635 177.111Z" fill="white"></path>
<path d="M17.9993 98.3381C17.1604 91.8866 19.2992 70.5182 20.8201 66.3858C19.7933 62.4729 18.9573 57.487 19.0291 53.309C19.074 50.726 22.0646 51.8098 23.1105 52.8868C20.3243 48.0462 18.3398 42.92 18.9304 37.7383C19.7013 30.9699 34.9884 46.1695 35.3452 46.4854C42.0864 52.522 48.2365 59.2305 57.796 60.0403C64.6208 60.6166 71.2096 60.3613 78.0387 59.9228C86.2378 59.4012 95.5187 57.7412 103.194 53.7319C113.251 46.1737 116.831 32.2388 127.453 25.8434C127.551 25.7679 127.661 25.6966 127.759 25.6234C127.652 25.5552 127.555 25.4834 127.49 25.413C125.426 23.1836 122.359 17.8901 125.571 15.3669C126.639 14.527 128.48 14.6347 129.966 14.9932C127.358 10.0351 132.442 7.28608 137.954 8.28062C141.351 8.89274 144.443 10.7913 147.092 12.8572C149.922 15.0635 150.949 17.8866 152.544 20.6592C153.131 17.0602 156.239 16.3983 159.652 18.8717C164.667 22.5053 167.198 33.3318 163.13 38.2446C163.228 38.3682 163.324 38.4974 163.426 38.6144L163.434 38.6147C163.235 38.3611 163.653 38.2991 163.826 38.4592L163.892 38.5236C163.925 38.5505 163.951 38.595 163.97 38.6413C171.462 39.3117 180.839 46.5425 183.942 52.5893C183.997 52.6929 184.039 52.8683 183.956 52.9745C183.85 53.1069 183.744 53.2399 183.638 53.3734C183.468 53.587 183.175 53.5588 182.942 53.4683C181.811 53.0419 180.683 52.6943 179.551 52.3961C172.55 52.714 166.19 59.5658 158.944 58.7544C164.421 63.1001 174.031 67.837 173.465 75.931C173.028 82.2382 164.783 79.766 160.518 77.1666C161.828 79.3391 165.283 83.8147 164.074 85.387C164.003 85.4776 163.875 85.5058 163.766 85.4758C162.056 84.9867 161.002 84.1896 159.548 83.1361C159.186 82.8725 158.922 82.6682 158.701 82.488C158.918 82.7203 159.163 83.0044 159.454 83.3855C160.196 84.3632 161.003 85.667 161.662 86.6936C164.907 91.725 166.721 97.6883 166.918 103.631C166.971 105.261 167.244 110.547 164.177 109.953C162.442 109.616 161.135 108.16 160.158 106.437C160.889 110.062 161.069 114.231 158.508 115.214C158.188 115.336 157.734 115.074 157.55 114.835C157.033 114.161 156.651 113.438 156.347 112.687C155.591 118.49 153.059 125.659 147.477 126.987C145.911 127.359 144.748 127.173 143.859 126.649C141.644 130.68 138.286 133.447 134.205 135.757C129.85 138.22 125.803 141.149 121.364 143.445C118.326 144.058 115.418 145.644 112.727 147C112.306 147.213 111.886 147.413 111.466 147.617C109.063 148.484 106.659 149.257 104.239 149.9C102.822 150.1 101.436 150.423 100.043 150.764C99.9856 150.756 99.9279 150.75 99.8602 150.762C97.9931 151.107 96.1426 151.493 94.2682 151.758C90.9138 152.126 87.4874 152.249 83.9212 152.045C82.3303 151.956 80.7494 151.8 79.1759 151.606C75.2392 150.814 67.0024 148.969 66.8945 149.106C62.0186 147.7 57.2791 145.842 52.7391 143.553C51.6489 143.003 50.4871 142.419 49.2857 141.803C46.8097 140.864 44.4104 139.815 42.1851 138.606C31.1542 132.615 20.7278 119.739 19.4584 106.561C18.7941 103.784 18.3438 100.977 17.9993 98.3381Z" fill="#F59149"></path>
<path d="M163.221 29.8173C162.985 27.7582 162.417 25.7856 161.517 23.8972C161.394 23.6041 161.251 23.3255 161.096 23.059C160.648 22.0369 160.063 21.1193 159.274 20.42C158.149 19.4294 156.014 18.5333 154.606 19.6016C153.42 20.5019 153.238 21.8641 152.93 23.1919C152.7 23.0318 152.51 22.8227 152.46 22.6475C151.198 18.3181 148.806 15.2405 145.049 12.6824C143.343 11.6199 141.507 10.8532 139.542 10.3806C136.72 9.58963 129.472 9.30399 132.769 16.1481C133.046 16.3141 133.307 16.5025 133.56 16.6994C133.718 16.977 133.873 17.2512 134.012 17.5346C131.319 16.1495 127.205 15.0468 126.502 18.5369C126.004 21.0071 128.045 24.2617 130.304 23.8474C130.326 23.8693 130.349 23.8897 130.373 23.9112C136.034 20.9868 143.516 22.5054 149.047 24.6559C152.072 25.834 154.645 27.7883 157.026 29.9144C158.724 31.4303 159.851 33.2905 160.982 35.1151C161.417 35.7261 161.828 36.3584 162.211 37.0089C162.369 37.2399 162.531 37.4649 162.696 37.6888C163.127 35.0412 163.428 32.692 163.221 29.8173Z" fill="#FF0A0A"></path>
<path d="M146.492 51.3459C145.216 54.8046 143.574 56.6889 144.071 60.7282C144.459 62.5397 145.11 64.2397 146.032 65.8351L146.319 65.9279C147.136 67.7373 148.447 69.2981 150.627 69.4009C152.666 69.4998 152.57 66.8504 152.415 65.0928C152.643 65.1439 152.913 65.2971 152.979 65.3772C154.388 67.1952 155.393 69.2431 156.629 71.1795C155.43 66.4968 156.111 63.2772 157.31 58.4458C157.106 58.3903 156.905 58.356 156.698 58.286C154.958 57.6952 153.198 52.0616 153.646 48.9873C153.664 48.0494 153.926 47.052 154.279 46.2278C155.363 41.4568 157.988 39.2434 161.271 38.7267C160.114 36.8506 159.217 34.8982 157.951 33.0739C157.29 32.1253 156.495 31.2221 155.774 30.2904C155.42 29.9588 155.082 29.6138 154.713 29.293C152.246 27.1504 149.253 25.7302 146.093 24.8671C140.805 24.4991 135.8 27.0298 132.911 31.5992C130.837 34.8762 130.69 38.3247 131.521 41.9664C133.05 48.6791 139.423 50.701 145.539 50.3795C146.017 50.3542 146.678 50.8382 146.492 51.3459Z" fill="white"></path>
<path d="M180.077 51.4249C180.201 51.4697 180.298 51.4977 180.408 51.5346C180.769 51.5934 181.126 51.6759 181.473 51.7955C183.147 51.9629 180.709 49.6154 179.724 48.4106C176.979 45.0567 173.234 42.2162 169.233 40.5024C161.994 37.3988 157.505 41.6065 154.975 47.2283C155.065 53.1807 163.771 49.92 167.815 49.8103C171.662 49.7045 176.477 50.119 180.077 51.4249Z" fill="white"></path>
<path d="M168.293 55.3001C170.656 54.1759 173.647 52.472 176.597 51.756C173.937 51.2846 171.237 51.0748 168.421 51.0085C164.418 50.912 160.531 52.2577 156.523 52.1295C155.687 52.1022 155.073 51.8763 154.628 51.5214C155.128 53.4096 155.952 55.3042 156.145 55.818C157.736 60.048 165.683 56.5423 168.293 55.3001Z" fill="white"></path>
<path d="M166.698 78.256C172.579 78.8063 171.945 73.5119 170.484 70.5354C168.052 65.5838 161.907 62.7765 158.25 58.6625C158.176 58.65 158.1 58.6491 158.023 58.6334C157.973 60.7286 157.47 62.6736 157.255 64.7639C156.915 68.0482 158.04 71.4472 159.313 74.5295C161.298 76.3909 163.758 77.6375 166.698 78.256Z" fill="#E61B1B"></path>
<path d="M30.3366 123.647C29.3302 123.072 28.4172 122.407 27.5688 121.684C29.5318 125.019 31.9662 128.028 34.7876 130.65C37.3808 132.831 39.9656 135.487 42.9322 137.305C43.4285 137.57 57.7669 144.555 61.2455 145.869C65.4571 147.463 69.7912 148.83 74.2944 149.084C78.5211 149.855 82.8235 150.321 87.2071 150.455C90.891 150.564 94.5063 150.216 98.0569 149.543C98.1318 149.449 101.512 148.699 103.146 148.288C103.119 148.317 103.09 148.343 103.059 148.373C103.616 148.216 104.162 148.03 104.717 147.863C105.083 147.758 105.446 147.658 105.816 147.543C106.017 147.481 106.21 147.406 106.411 147.342C106.99 147.152 107.571 146.959 108.148 146.753C109.14 146.412 110.128 146.049 111.109 145.67C111.239 145.619 111.369 145.572 111.499 145.522C114.231 144.455 116.927 143.283 119.566 142.019C127.88 138.042 135.946 133.522 142.446 126.953C142.716 126.682 142.75 126.252 142.416 126.013C142.564 125.946 142.704 125.877 142.85 125.813C141.721 124.429 141.334 122.185 141.246 119.913C141.218 119.186 141.201 118.574 141.191 118.049C140.941 119.669 140.299 121.452 138.8 121.326C135.538 121.049 133.648 109.843 133.341 107.992C133.239 107.388 134.248 107.809 134.357 108.189C134.922 110.129 135.527 112.045 136.192 113.954C136.039 113.509 138.846 121.842 139.868 118.913C140.46 117.223 140.247 115.236 141.14 113.653C141.299 113.371 141.882 113.702 141.898 113.947C142.086 117.099 141.959 128.861 148.589 124.328C153.627 120.883 155.235 113.372 155.144 107.822C155.131 107.124 156.51 107.763 156.596 108.246C156.682 108.714 158.05 114.823 158.844 111.72C159.456 109.328 159.42 107.162 159.124 104.696C159.098 104.488 159.089 104.319 159.089 104.164C158.67 103.121 158.348 102.103 158.104 101.287C158.006 100.951 158.654 101.127 158.735 101.344C158.915 101.828 159.158 102.548 159.407 103.405C160.223 103.336 162.331 106.573 162.746 107.408C164.739 109.202 164.932 104.446 164.964 103.854C165.401 95.2903 161.509 87.156 156.236 80.6094C155.781 80.0415 156.634 80.0231 156.975 80.2775C158.502 81.4263 164.057 84.9224 161.073 80.225C160.021 78.5727 158.922 76.9067 158.055 75.1405C156.816 73.7808 155.805 72.4275 154.83 70.8379C154.194 69.8012 153.207 64.7564 153.182 68.2676C153.169 70.0056 151.473 71.4528 149.75 70.5847C146.092 68.7397 144.517 66.1439 143.021 62.3981C141.218 57.8843 143.027 55.3105 144.699 51.6169C141 51.8771 137.596 51.9655 134.475 49.1375C131.302 46.2671 128.576 42.2251 128.772 37.7552C129.059 31.1554 134.181 25.4038 140.403 23.9061C139.859 23.8652 139.312 23.8266 138.771 23.8156C133.443 23.7039 129.141 26.4853 125.444 29.9C122.798 32.6306 120.538 35.5716 118.344 38.7774C118.197 39.0324 118.066 39.2976 117.923 39.5509C115.955 42.1863 114.049 44.8711 111.935 47.374C108.964 50.8853 105.757 54.152 102.109 56.8483C99.8441 57.995 97.5355 58.9135 95.3349 59.5773C83.3303 63.2039 69.1295 62.9995 56.816 61.9005C45.996 60.934 38.6362 51.0183 31.2674 44.1533C30.2129 43.1946 29.1422 42.2521 28.0584 41.3266C27.5199 40.8784 26.9786 40.4307 26.4379 39.9799C25.9928 39.4185 25.4928 39.0879 24.9496 38.9534C24.0987 38.1979 23.1219 37.6255 22.0613 37.4805C20.397 37.2502 19.8281 39.2423 20.0743 40.4532C20.6751 43.3915 22.1356 46.1445 23.7871 48.7794C23.953 49.1626 24.1196 49.5397 24.2844 49.9161C24.746 50.9679 25.264 51.9872 25.8155 52.9906C27.4246 56.7095 29.049 60.4239 30.6299 64.1547C29.6142 62.6778 28.5467 61.1609 27.4436 59.5796C26.7069 58.727 25.9855 57.8969 25.3686 57.0958C25.315 57.0281 20.9794 52.2365 21.218 55.1284C21.3727 57.0086 21.9593 58.9283 22.2139 60.801C22.6065 63.6735 23.2714 66.4675 24.1569 69.1803C24.8217 72.6451 25.5854 76.0897 26.5498 79.4752C24.6267 76.2649 22.986 72.9076 21.7434 69.4137C21.6491 71.6118 21.4889 73.7941 21.2019 75.9944C20.3969 82.1657 19.992 88.1673 20.4334 94.384C21.1235 104.082 22.8831 116.444 30.9149 123.055C31.4993 123.541 30.8805 123.956 30.3366 123.647Z" fill="white"></path>
<path opacity="0.4" d="M142.207 115.913C143.208 119.193 144.864 122.309 147.937 123.041C148.782 123.242 149.54 123.171 150.236 122.934C149.732 123.449 149.185 123.922 148.587 124.329C143.226 127.992 142.284 121.011 142.02 116.536C142.083 116.327 142.149 116.12 142.207 115.913Z" fill="#CF952A"></path>
<path d="M42.9624 101.105C39.8802 101.764 36.9064 101.79 34.8943 99.9489C32.5402 97.7947 35.8561 94.2586 37.2994 92.7745C41.6253 88.3367 45.8687 85.2375 50.9201 82.6111C50.0129 82.8258 49.1142 83.0815 48.2422 83.4494C46.8895 84.0234 45.646 84.1479 44.5754 83.1617C44.2996 82.9034 44.078 82.5837 44.2391 82.2064C44.255 82.1745 44.2782 82.1435 44.2906 82.1087C50.0547 77.9513 56.2522 76.2315 63.3024 74.7875C66.9389 74.0426 70.9642 72.9547 74.7024 73.1091C75.1204 73.1271 75.5324 73.1654 75.9435 73.2126C69.7485 74.162 63.7541 75.029 57.7252 77.3546C54.2807 78.6796 50.6962 81.123 47.0872 82.0249C50.1423 81.2613 53.9739 80.9884 56.9092 79.8465C57.0889 79.773 57.3554 79.8654 57.5813 80.0226C56.5458 80.8359 55.4909 81.6199 54.4012 82.3551C50.5608 84.1766 46.9177 86.3729 43.7196 89.1755C42.476 90.2675 32.7487 99.6007 38.3915 99.6621C40.1648 99.6801 41.9045 99.3491 43.6262 98.8817C45.4645 98.7501 47.3035 98.6124 49.14 98.4671C48.2226 99.4646 47.2504 100.405 46.2413 101.308C43.7562 103.139 41.3426 105.056 38.6589 106.645C36.5909 107.866 34.1538 110.096 36.7726 111.94C39.9626 114.184 45.1758 113.731 48.8886 113.822C49.1181 113.828 49.3642 113.835 49.6077 113.844C47.2892 114.477 44.8264 115.124 43.2386 116.682C42.9535 116.963 42.7741 117.263 42.6467 117.571C42.0347 118.41 42.3483 119.379 43.0401 120.332C44.251 122.407 47.0078 124.369 48.2975 125.031C48.6403 125.208 48.9877 125.362 49.3351 125.525C51.8093 126.883 54.5737 127.787 57.4162 128.392C57.4417 128.398 57.4674 128.401 57.4932 128.406C57.8535 128.483 58.2117 128.561 58.5733 128.628C62.7359 129.481 66.9878 129.663 71.2133 129.239C80.5038 128.504 89.5111 126.99 96.9155 121.374C96.1037 123.16 95.0717 124.849 94.5627 126.748C94.4563 127.145 94.6612 127.481 95.0771 127.556C99.1249 128.271 103.177 122.995 105.497 120.41C109.059 116.44 112.435 111.63 113.882 106.428C113.918 106.99 113.965 107.553 114.033 108.114C114.038 108.171 114.669 113.421 115.295 112.725C116.402 111.506 117.166 109.764 117.774 108.262C118.761 105.824 119.152 103.519 119.267 101.251C119.612 99.1421 119.878 96.9974 119.995 94.8536C120.277 96.2084 120.378 97.7237 120.415 98.4394C120.545 100.858 120.407 103.347 119.901 105.731C119.095 109.526 117.567 112.791 114.889 115.472C114.394 115.37 113.907 115.116 113.479 114.747C112.861 114.217 112.449 113.42 112.179 112.478C109.659 119.222 104.579 125.037 98.0787 128.6C96.4854 129.471 93.9904 129.774 92.9022 127.988C92.2446 126.906 92.5681 125.965 93.018 124.898C87.7968 128.997 80.7894 130.849 73.8877 130.859C70.2473 131.255 66.5373 131.252 63.0891 130.858C55.7848 130.02 39.5443 125.857 39.2301 116.338C39.2515 116.198 39.3216 116.088 39.4378 116.003C39.8036 115.828 40.1813 115.674 40.5539 115.507C38.0423 115.227 35.438 114.458 33.9545 112.623C31.3886 109.452 37.2479 104.663 42.9624 101.105Z" fill="#F59149"></path>
<path d="M140.625 38.7571C141.091 41.4241 143.117 43.2947 145.152 42.939C147.188 42.583 148.461 40.1356 147.995 37.4686C147.53 34.8101 145.502 32.9364 143.465 33.2924C141.431 33.6481 140.16 36.0986 140.625 38.7571Z" fill="#111010"></path>
<path d="M143.993 36.2353C144.135 37.0453 144.754 37.6143 145.369 37.5067C145.989 37.3983 146.376 36.653 146.234 35.8435C146.093 35.0345 145.476 34.4657 144.856 34.574C144.241 34.6822 143.852 35.4263 143.993 36.2353Z" fill="white"></path>
</g>
</g>
<defs>
<clipPath id="SvgjsClipPath1787">
<rect width="200" height="200" fill="white" transform="matrix(-1 0 0 1 200 0)"></rect>
</clipPath>
<clipPath id="SvgjsClipPath1786">
<rect width="176.771" height="176.771" fill="white" transform="matrix(-0.985058 0.172222 0.172222 0.985058 177.114 -2.01562)"></rect>
</clipPath>
</defs>
</svg><style>@media (prefers-color-scheme: light) { :root { filter: contrast(1) brightness(1); } }
@media (prefers-color-scheme: dark) { :root { filter: none; } }
</style></svg>