<svg width="116" height="204" viewBox="0 0 116 204" fill="none" xmlns="http://www.w3.org/2000/svg">
    <g id="Pattern">
        <path id="Vector 9"
              d="M48.5833 2.16211C46.7355 5.19788 37.9669 20.7335 37.8283 37.3623C37.6897 53.9911 34.5026 78.3799 47.2513 96.1173C60 113.855 68.1758 119.536 71.0858 125.91C73.9959 132.285 76.0745 146.281 60.4157 151.824C44.757 157.367 28.5439 159.029 7.6194 169.561C-1.80357 173.857 0.27503 177.46 12.3309 178.984C24.3867 180.508 42.4012 182.864 47.2513 184.943C52.1013 187.021 62.0786 189.1 72.4716 187.991C82.8645 186.883 90.2089 189.515 100.879 190.624C111.549 191.733 124.159 190.624 105.313 194.227C86.4674 197.83 85.3589 196.444 81.2017 198.8C77.0445 201.156 78.0145 204.204 84.9431 202.126C91.8718 200.047 107.386 195.006 109.866 194.227"
              stroke="#7986A3" stroke-width="1.5" stroke-linecap="round" stroke-linejoin="round"/>
        <path stroke="#fff" stroke-dasharray="500" stroke-linecap="round" stroke-linejoin="round" stroke-width="1.5"
              d="M48.5833 2.16211C46.7355 5.19788 37.9669 20.7335 37.8283 37.3623C37.6897 53.9911 34.5026 78.3799 47.2513 96.1173C60 113.855 68.1758 119.536 71.0858 125.91C73.9959 132.285 76.0745 146.281 60.4157 151.824C44.757 157.367 28.5439 159.029 7.6194 169.561C-1.80357 173.857 0.27503 177.46 12.3309 178.984C24.3867 180.508 42.4012 182.864 47.2513 184.943C52.1013 187.021 62.0786 189.1 72.4716 187.991C82.8645 186.883 90.2089 189.515 100.879 190.624C111.549 191.733 124.159 190.624 105.313 194.227C86.4674 197.83 85.3589 196.444 81.2017 198.8C77.0445 201.156 78.0145 204.204 84.9431 202.126C91.8718 200.047 107.386 195.006 109.866 194.227">
            <animate attributeName="stroke-dashoffset" dur="3s" repeatCount="indefinite" values="500;0"/>
        </path>
        <circle id="Ellipse 2108" cx="48.4408" cy="2" r="2" fill="#fff"/>
    </g>
</svg>
