<svg width="134" height="176" viewBox="0 0 134 176" fill="none" xmlns="http://www.w3.org/2000/svg">
    <g id="Pattern">
        <path id="Vector 3"
              d="M91.3695 2.08252C91.1321 7.49426 89.8173 31.2884 90.5934 41.1873C91.9614 58.6365 84.6541 82.1026 85.314 94.1132C85.9739 101.9 83.8622 117.871 106.168 135.029C112.239 139.648 113.295 142.42 125.041 144.268C136.788 146.115 129.925 151.263 122.534 156.146C115.143 161.03 98.6445 167.497 82.2784 162.613C65.9122 157.73 51.1299 158.522 42.4189 156.146C33.7079 153.77 24.073 148.359 17.0778 148.227C10.0825 148.095 1.23955 157.07 2.42741 162.613C3.61528 168.157 10.7425 170.005 21.6972 169.477C32.652 168.949 53.2416 170.665 60.1049 171.588C66.9681 172.512 79.2427 171.588 85.314 171.588C91.3853 171.588 97.0607 172.776 98.3805 173.964"
              stroke="#7986A3" stroke-width="1.5" stroke-linecap="round" stroke-linejoin="round"/>

        <path id="Vector 8"
              d="M91.3695 2.08252C91.1321 7.49426 89.8173 31.2884 90.5934 41.1873C91.9614 58.6365 84.6541 82.1026 85.314 94.1132C85.9739 101.9 83.8622 117.871 106.168 135.029C112.239 139.648 113.295 142.42 125.041 144.268C136.788 146.115 129.925 151.263 122.534 156.146C115.143 161.03 98.6445 167.497 82.2784 162.613C65.9122 157.73 51.1299 158.522 42.4189 156.146C33.7079 153.77 24.073 148.359 17.0778 148.227C10.0825 148.095 1.23955 157.07 2.42741 162.613C3.61528 168.157 10.7425 170.005 21.6972 169.477C32.652 168.949 53.2416 170.665 60.1049 171.588C66.9681 172.512 79.2427 171.588 85.314 171.588C91.3853 171.588 97.0607 172.776 98.3805 173.964"
              stroke="#7986A3" stroke-width="1.5" stroke-linecap="round" stroke-linejoin="round"/>
        <path stroke="#fff" stroke-dasharray="1000" stroke-linecap="round" stroke-linejoin="round" stroke-width="1.5"
              d="M91.3695 2.08252C91.1321 7.49426 89.8173 31.2884 90.5934 41.1873C91.9614 58.6365 84.6541 82.1026 85.314 94.1132C85.9739 101.9 83.8622 117.871 106.168 135.029C112.239 139.648 113.295 142.42 125.041 144.268C136.788 146.115 129.925 151.263 122.534 156.146C115.143 161.03 98.6445 167.497 82.2784 162.613C65.9122 157.73 51.1299 158.522 42.4189 156.146C33.7079 153.77 24.073 148.359 17.0778 148.227C10.0825 148.095 1.23955 157.07 2.42741 162.613C3.61528 168.157 10.7425 170.005 21.6972 169.477C32.652 168.949 53.2416 170.665 60.1049 171.588C66.9681 172.512 79.2427 171.588 85.314 171.588C91.3853 171.588 97.0607 172.776 98.3805 173.964">
            <animate attributeName="stroke-dashoffset" dur="3s" repeatCount="indefinite" values="1000;0"/>
        </path>
    </g>
</svg>
