<svg width="164" height="215" viewBox="0 0 164 215" fill="none" xmlns="http://www.w3.org/2000/svg">
<g id="Pattern">
<path id="Vector 14" d="M69.3661 2.14575C70.4874 7.47217 70.9079 13.6395 67.6841 19.6667C64.4602 25.694 60.5355 42.5141 51.705 52.0455C42.8744 61.5769 20.0271 86.5267 21.7091 102.085C23.3911 117.644 39.0899 133.483 42.5941 147.359C46.0983 161.236 52.1255 180.719 47.3598 184.924C42.5941 189.129 29.6987 191.512 24.933 192.353C20.1673 193.194 13.5794 195.577 7.41201 198.1C1.24463 200.623 -5.20308 202.305 12.3179 202.305C29.8388 202.305 44.4163 204.688 56.0502 206.23C67.6841 207.772 96.4184 207.491 100.623 206.23C104.828 204.968 112.818 204.548 97.8201 203.426C89.5545 202.808 85.6255 206.931 60.8159 201.464C49.4623 198.1 38.4683 194.572 38.2489 199.221C38.0295 203.871 35.3054 203.987 36.1464 206.23C36.9874 208.473 37.9685 208.753 44.8368 209.734C51.705 210.715 59.1339 209.734 66.0021 210.575C72.8703 211.416 77.3556 212.537 59.4142 211.556C41.4727 210.575 36.1464 207.912 36.1464 210.575C36.1464 213.238 49.7162 214.487 56.0502 213.098C62.3841 211.71 62.9184 214.36 74.272 208.893C85.6255 203.426 95.7176 200.623 117.724 203.426C139.73 206.23 151.785 202.726 155.429 201.464C159.073 200.203 168.465 197.68 158.653 204.127C156.48 205.151 152.54 205.626 150.308 205.531" stroke="#7986A3" stroke-width="1.5" stroke-linecap="round" stroke-linejoin="round"/>
    <path stroke="#fff" stroke-dasharray="1000" stroke-linecap="round" stroke-linejoin="round" stroke-width="1.5"
          d="M69.3661 2.14575C70.4874 7.47217 70.9079 13.6395 67.6841 19.6667C64.4602 25.694 60.5355 42.5141 51.705 52.0455C42.8744 61.5769 20.0271 86.5267 21.7091 102.085C23.3911 117.644 39.0899 133.483 42.5941 147.359C46.0983 161.236 52.1255 180.719 47.3598 184.924C42.5941 189.129 29.6987 191.512 24.933 192.353C20.1673 193.194 13.5794 195.577 7.41201 198.1C1.24463 200.623 -5.20308 202.305 12.3179 202.305C29.8388 202.305 44.4163 204.688 56.0502 206.23C67.6841 207.772 96.4184 207.491 100.623 206.23C104.828 204.968 112.818 204.548 97.8201 203.426C89.5545 202.808 85.6255 206.931 60.8159 201.464C49.4623 198.1 38.4683 194.572 38.2489 199.221C38.0295 203.871 35.3054 203.987 36.1464 206.23C36.9874 208.473 37.9685 208.753 44.8368 209.734C51.705 210.715 59.1339 209.734 66.0021 210.575C72.8703 211.416 77.3556 212.537 59.4142 211.556C41.4727 210.575 36.1464 207.912 36.1464 210.575C36.1464 213.238 49.7162 214.487 56.0502 213.098C62.3841 211.71 62.9184 214.36 74.272 208.893C85.6255 203.426 95.7176 200.623 117.724 203.426C139.73 206.23 151.785 202.726 155.429 201.464C159.073 200.203 168.465 197.68 158.653 204.127C156.48 205.151 152.54 205.626 150.308 205.531">
        <animate attributeName="stroke-dashoffset" dur="3s" repeatCount="indefinite" values="1000;0"/>
    </path>
<circle id="Ellipse 2108" cx="69.4408" cy="2" r="2" fill="#fff"/>
</g>
</svg>
