<svg width="157" height="201" viewBox="0 0 157 201" fill="none" xmlns="http://www.w3.org/2000/svg">
    <g id="Pattern">
        <path id="Vector 10"
              d="M63.439 2.33476C63.8003 8.35613 64.3004 21.8629 64.3004 29.17C64.3004 36.4771 63.5175 41.9574 67.9539 57.6154C72.3903 73.2735 71.6074 89.062 69.1283 98.5873C66.6491 108.113 63.5175 129.12 93.1372 144.126C97.4432 146.214 103.576 148.301 144.548 145.17C151.594 144.126 160.989 143.604 152.377 162.394C149.898 166.439 134.631 174.529 121.583 179.357C108.534 184.184 110.752 185.098 94.4421 190.187C78.1316 195.276 77.4792 202.322 47.8594 198.538C18.2397 194.754 18.6311 187.055 25.1553 188.621C31.6795 190.187 53.9922 195.276 58.4286 196.189C62.865 197.102 68.4758 201.278 44.9888 196.972C21.5018 192.666 30.5051 190.448 14.5861 192.013C-1.33286 193.579 -1.33286 195.015 7.40954 200.234"
              stroke="#7986A3" stroke-width="1.5" stroke-linecap="round" stroke-linejoin="round"/>
        <path stroke="#fff" stroke-dasharray="500" stroke-linecap="round" stroke-linejoin="round" stroke-width="1.5"
              d="M63.439 2.33476C63.8003 8.35613 64.3004 21.8629 64.3004 29.17C64.3004 36.4771 63.5175 41.9574 67.9539 57.6154C72.3903 73.2735 71.6074 89.062 69.1283 98.5873C66.6491 108.113 63.5175 129.12 93.1372 144.126C97.4432 146.214 103.576 148.301 144.548 145.17C151.594 144.126 160.989 143.604 152.377 162.394C149.898 166.439 134.631 174.529 121.583 179.357C108.534 184.184 110.752 185.098 94.4421 190.187C78.1316 195.276 77.4792 202.322 47.8594 198.538C18.2397 194.754 18.6311 187.055 25.1553 188.621C31.6795 190.187 53.9922 195.276 58.4286 196.189C62.865 197.102 68.4758 201.278 44.9888 196.972C21.5018 192.666 30.5051 190.448 14.5861 192.013C-1.33286 193.579 -1.33286 195.015 7.40954 200.234">
            <animate attributeName="stroke-dashoffset" dur="3s" repeatCount="indefinite" values="500;0"/>
        </path>
        <circle id="Ellipse 2108" cx="63.4408" cy="2" r="2" fill="#fff"/>
    </g>
</svg>
