<svg width="173" height="259" viewBox="0 0 173 259" fill="none" xmlns="http://www.w3.org/2000/svg">
    <path d="M119.478 2.00949C119.478 8.72325 118.395 37.6391 118.395 46.4244C118.395 55.2098 118.395 80.9929 114.766 97.9906C111.137 114.988 103.88 156.05 128.899 177.632C139.785 187.181 140.931 192.147 161.558 197.112C168.051 198.64 182.757 202.078 152.581 219.267C141.122 226.142 106.363 227.67 43.1465 213.919C34.5521 212.009 22.138 209.144 23.6659 219.267C24.2338 222.55 23.2467 223.461 18.0071 221.639C12.7675 219.816 7.07227 218.829 5.17386 218.601C3.27546 218.373 -1.0529 219.209 4.79418 221.639C10.6413 224.069 24.8044 227.374 42.1847 230.244C59.5651 233.115 65.4649 235.985 83.483 235.028C101.501 234.071 108.198 230.882 119.998 238.855C123.665 241.725 130.868 244.635 127.964 248.925C125.061 253.214 129.944 255.986 140.965 256.514"
          stroke="#7986A3" stroke-width="1.5" stroke-linecap="round" stroke-linejoin="round"/>
    <path stroke="#fff" stroke-dasharray="1000" stroke-linecap="round" stroke-linejoin="round" stroke-width="1.5"
          d="M119.478 2.00949C119.478 8.72325 118.395 37.6391 118.395 46.4244C118.395 55.2098 118.395 80.9929 114.766 97.9906C111.137 114.988 103.88 156.05 128.899 177.632C139.785 187.181 140.931 192.147 161.558 197.112C168.051 198.64 182.757 202.078 152.581 219.267C141.122 226.142 106.363 227.67 43.1465 213.919C34.5521 212.009 22.138 209.144 23.6659 219.267C24.2338 222.55 23.2467 223.461 18.0071 221.639C12.7675 219.816 7.07227 218.829 5.17386 218.601C3.27546 218.373 -1.0529 219.209 4.79418 221.639C10.6413 224.069 24.8044 227.374 42.1847 230.244C59.5651 233.115 65.4649 235.985 83.483 235.028C101.501 234.071 108.198 230.882 119.998 238.855C123.665 241.725 130.868 244.635 127.964 248.925C125.061 253.214 129.944 255.986 140.965 256.514">
        <animate attributeName="stroke-dashoffset" dur="3s" repeatCount="indefinite" values="1000;0"/>
    </path>
</svg>
