<svg width="173" height="259" viewBox="0 0 173 259" fill="none" xmlns="http://www.w3.org/2000/svg">
    <g style="transform:scaleY(-1);transform-origin:center">
        <circle cx="119.441" cy="2" r="2" fill="#7986A3"/>
        <circle cx="119" cy="18.8215" r="2" fill="#7986A3"/>
        <circle cx="118.266" cy="48.3926" r="2" fill="#7986A3"/>
        <circle cx="117.398" cy="79.9662" r="2" fill="#7986A3"/>
        <circle cx="114.266" cy="100.059" r="2" fill="#7986A3"/>
        <circle cx="111.262" cy="136.238" r="2" fill="#7986A3"/>
        <circle cx="122.409" cy="170.949" r="2" fill="#7986A3"/>
        <circle cx="140.966" cy="188.705" r="2" fill="#7986A3"/>
        <circle cx="161.86" cy="197.182" r="2" fill="#7986A3"/>
        <circle cx="170.902" cy="203" r="2" fill="#7986A3"/>
        <circle cx="163.158" cy="212.612" r="2" fill="#7986A3"/>
        <circle cx="134.655" cy="223.827" r="2" fill="#7986A3"/>
        <circle cx="96.4733" cy="223.092" r="2" fill="#7986A3"/>
        <circle cx="64.5659" cy="218.219" r="2" fill="#7986A3"/>
        <circle cx="34.8613" cy="212.412" r="2" fill="#7986A3"/>
        <circle cx="23.5134" cy="217.018" r="2" fill="#7986A3"/>
        <circle cx="23.5134" cy="221.49" r="2" fill="#7986A3"/>
        <circle cx="21.0436" cy="222.558" r="2" fill="#7986A3"/>
        <circle cx="7.42624" cy="219.092" r="2" fill="#7986A3"/>
        <circle cx="2.35309" cy="219.49" r="2" fill="#7986A3"/>
        <circle cx="13.8344" cy="224.558" r="2" fill="#7986A3"/>
        <circle cx="58.0242" cy="233.103" r="2" fill="#7986A3"/>
        <circle cx="74.9792" cy="235.103" r="2" fill="#7986A3"/>
        <circle cx="106" cy="233.634" r="2" fill="#7986A3"/>
        <circle cx="122.421" cy="240.643" r="2" fill="#7986A3"/>
        <circle cx="128.228" cy="245.316" r="2" fill="#7986A3"/>
        <circle cx="128.228" cy="248.453" r="2" fill="#7986A3"/>
        <circle cx="127.761" cy="252.792" r="2" fill="#7986A3"/>
        <circle cx="134.225" cy="255.913" r="2" fill="#7986A3"/>
        <circle cx="140.879" cy="256.514" r="2" fill="#7986A3"/>
        <circle cx="117.441" cy="2" r="2" fill="#fff">
            <animate fill="freeze" attributeName="cx" calcMode="discrete" dur="3s" repeatCount="indefinite"
                     values="119.441;119;118.266;117.398;114.266;111.262;122.409;140.966;161.86;170.902;163.158;134.655;96.4733;64.5659;34.8613;23.5134;23.5134;21.0436;7.42624;2.35309;13.8344;58.0242;74.9792;106;122.421;128.228;128.228;127.761;134.225;140.879"/>
            <animate fill="freeze" attributeName="cy" calcMode="discrete" dur="3s" repeatCount="indefinite"
                     values="2;18.8215;48.3926;79.9662;100.059;136.238;170.949;188.705;197.182;203;212.612;223.827;223.092;218.219;212.412;217.018;221.49;222.558;219.092;219.49;224.558;233.103;235.103;233.634;240.643;245.316;248.453;252.792;255.913;256.514"/>
        </circle>
    </g>
</svg>
