<svg width="198" height="210" viewBox="0 0 198 210" fill="none" xmlns="http://www.w3.org/2000/svg">
    <g id="Pattern">
        <path id="Vector 8"
              d="M117.53 2.2583C120.512 7.19049 135.503 32.6824 139.116 40.3896C142.729 48.0969 147.787 72.1824 146.342 94.1002C144.896 116.018 154.531 132.155 162.72 148.533C170.909 164.911 172.745 176.472 145.137 183.457C117.53 190.442 89.0181 177.918 69.0272 173.823C49.0363 169.729 42.0515 169.728 32.6581 173.823C23.2648 177.918 19.1703 180.326 8.33184 180.326C-2.50662 180.326 3.51475 184.662 8.33184 188.756C13.1489 192.851 20.1337 197.186 30.9722 199.354C41.8106 201.521 66.8595 206.82 74.0851 208.265C81.3108 209.71 110.213 206.098 124.665 202.003C139.116 197.908 139.116 199.354 142.729 199.354C146.342 199.354 147.582 202.643 154.349 202.757C161.117 202.872 181.763 203.52 188.989 199.354C196.215 195.187 201.262 193.773 183.254 196.563C169.794 198.649 157.561 194.958 137.029 193.466C130.376 192.664 98.3472 191.124 86.2162 196.563C74.0851 202.003 66.0286 200.922 58.3436 196.563C52.1956 193.077 38.6583 185.399 32.6581 181.996"
              stroke="#7986A3" stroke-width="1.5" stroke-linecap="round" stroke-linejoin="round"/>
        <path stroke="#fff" stroke-dasharray="1000" stroke-linecap="round" stroke-linejoin="round" stroke-width="1.5"
              d="M117.53 2.2583C120.512 7.19049 135.503 32.6824 139.116 40.3896C142.729 48.0969 147.787 72.1824 146.342 94.1002C144.896 116.018 154.531 132.155 162.72 148.533C170.909 164.911 172.745 176.472 145.137 183.457C117.53 190.442 89.0181 177.918 69.0272 173.823C49.0363 169.729 42.0515 169.728 32.6581 173.823C23.2648 177.918 19.1703 180.326 8.33184 180.326C-2.50662 180.326 3.51475 184.662 8.33184 188.756C13.1489 192.851 20.1337 197.186 30.9722 199.354C41.8106 201.521 66.8595 206.82 74.0851 208.265C81.3108 209.71 110.213 206.098 124.665 202.003C139.116 197.908 139.116 199.354 142.729 199.354C146.342 199.354 147.582 202.643 154.349 202.757C161.117 202.872 181.763 203.52 188.989 199.354C196.215 195.187 201.262 193.773 183.254 196.563C169.794 198.649 157.561 194.958 137.029 193.466C130.376 192.664 98.3472 191.124 86.2162 196.563C74.0851 202.003 66.0286 200.922 58.3436 196.563C52.1956 193.077 38.6583 185.399 32.6581 181.996">
            <animate attributeName="stroke-dashoffset" dur="3s" repeatCount="indefinite" values="1000;0"/>
        </path>
        <line x1="98.441" x2="98.441" y2="100%" stroke="#595D66" stroke-opacity=".5">
            <animate attributeName="x1" dur="3s" repeatCount="indefinite"
                     values="117.441;119.441;132.389;142.471;146.471;148.179;153.193;167.739;166.471;147.298;114.515;65.2588;48.9501;22.669;13.578;2.25775;2.75362;14.379;44.1312;66.0597;91.2389;123.415;137.024;145.298;150.633;164.793;188.595;195.586;178.947;137.404;118.515;90.8567;79.1761;68.6527;57.6884"/>
            <animate attributeName="x2" dur="3s" repeatCount="indefinite"
                     values="117.441;119.441;132.389;142.471;146.471;148.179;153.193;167.739;166.471;147.298;114.515;65.2588;48.9501;22.669;13.578;2.25775;2.75362;14.379;44.1312;66.0597;91.2389;123.415;137.024;145.298;150.633;164.793;188.595;195.586;178.947;137.404;118.515;90.8567;79.1761;68.6527;57.6884"/>
        </line>
        <line x2="100%" y1="2" y2="2" stroke="#595D66" stroke-opacity=".5">
            <animate attributeName="y1" dur="3s" repeatCount="indefinite"
                     values="2;4.80981;28.0605;51.0359;89.2178;114.177;129.108;161.725;171.918;182.992;184.7;173.24;170.761;178.144;180.144;181.742;183.742;193.108;202.309;206.59;207.802;202.369;199.119;200;202.369;203;199.474;195.474;197.119;193.474;192.592;195.119;199.119;200.309;196.309"/>
            <animate attributeName="y2" dur="3s" repeatCount="indefinite"
                     values="2;4.80981;28.0605;51.0359;89.2178;114.177;129.108;161.725;171.918;182.992;184.7;173.24;170.761;178.144;180.144;181.742;183.742;193.108;202.309;206.59;207.802;202.369;199.119;200;202.369;203;199.474;195.474;197.119;193.474;192.592;195.119;199.119;200.309;196.309"/>
        </line>
    </g>
</svg>
