<svg xmlns="http://www.w3.org/2000/svg" fill="none" viewBox="0 0 157 257">
    <g style="transform:scaleY(-1);transform-origin:center">
    <circle id="Ellipse 2108" cx="80.4408" cy="2" r="2" fill="#7986A3"/>
    <circle id="Ellipse 2109" cx="80.6802" cy="14.1279" r="2" fill="#7986A3"/>
    <circle id="Ellipse 2110" cx="76.4408" cy="36.7083" r="2" fill="#7986A3"/>
    <circle id="Ellipse 2111" cx="72.3417" cy="64.2573" r="2" fill="#7986A3"/>
    <circle id="Ellipse 2112" cx="76.5951" cy="103.365" r="2" fill="#7986A3"/>
    <circle id="Ellipse 2113" cx="84.532" cy="131.823" r="2" fill="#7986A3"/>
    <circle id="Ellipse 2114" cx="98.1176" cy="158.136" r="2" fill="#7986A3"/>
    <circle id="Ellipse 2115" cx="111.274" cy="180.588" r="2" fill="#7986A3"/>
    <circle id="Ellipse 2116" cx="117.352" cy="188.024" r="2" fill="#7986A3"/>
    <circle id="Ellipse 2117" cx="118.353" cy="198.178" r="2" fill="#7986A3"/>
    <circle id="Ellipse 2118" cx="105.625" cy="205" r="2" fill="#7986A3"/>
    <circle id="Ellipse 2119" cx="99.1901" cy="208.504" r="2" fill="#7986A3"/>
    <circle id="Ellipse 2120" cx="96.5445" cy="210.005" r="2" fill="#7986A3"/>
    <circle id="Ellipse 2121" cx="90.8958" cy="211.435" r="2" fill="#7986A3"/>
    <circle id="Ellipse 2122" cx="84.4604" cy="212.504" r="2" fill="#7986A3"/>
    <circle id="Ellipse 2123" cx="57.6468" cy="208.504" r="2" fill="#7986A3"/>
    <circle id="Ellipse 2124" cx="14.3873" cy="201.639" r="2" fill="#7986A3"/>
    <circle id="Ellipse 2125" cx="3.44734" cy="201.639" r="2" fill="#7986A3"/>
    <circle id="Ellipse 2126" cx="1.99995" cy="206.504" r="2" fill="#7986A3"/>
    <circle id="Ellipse 2127" cx="3.44734" cy="207.435" r="2" fill="#7986A3"/>
    <circle id="Ellipse 2128" cx="9.1676" cy="208.504" r="2" fill="#7986A3"/>
    <circle id="Ellipse 2129" cx="29.1885" cy="210.935" r="2" fill="#7986A3"/>
    <circle id="Ellipse 2130" cx="64.1535" cy="214.935" r="2" fill="#7986A3"/>
    <circle id="Ellipse 2131" cx="74.6607" cy="217.366" r="2" fill="#7986A3"/>
    <circle id="Ellipse 2132" cx="80.8815" cy="218.936" r="2" fill="#7986A3"/>
    <circle id="Ellipse 2133" cx="87.5312" cy="217.366" r="2" fill="#7986A3"/>
    <circle id="Ellipse 2134" cx="114.845" cy="210.005" r="2" fill="#7986A3"/>
    <circle id="Ellipse 2135" cx="138.088" cy="208.504" r="2" fill="#7986A3"/>
    <circle id="Ellipse 2136" cx="140.733" cy="211.435" r="2" fill="#7986A3"/>
    <circle id="Ellipse 2137" cx="123.644" cy="215.366" r="2" fill="#7986A3"/>
    <circle cx="80.4408" cy="2" r="2" fill="#fff">
        <animate fill="freeze" attributeName="cx" calcMode="discrete" dur="3s" repeatCount="indefinite"
                 values="80.4408;80.6802;76.4408;72.3417;76.5951;84.532;98.1176;111.274;117.352;118.353;105.625;99.1901;96.5445;90.8958;84.4604;57.6468;14.3873;3.44734;1.99995;3.44734;9.1676;29.1885;64.1535;74.6607;80.8815;87.5312;114.845;138.088;140.733;123.644"/>
        <animate fill="freeze" attributeName="cy" calcMode="discrete" dur="3s" repeatCount="indefinite"
                 values="2;14.1279;36.7083;64.2573;103.365;131.823;158.136;180.588;188.024;198.178;205;208.504;210.005;211.435;212.504;208.504;201.639;201.639;206.504;207.435;208.504;210.935;214.935;217.366;218.936;217.366;210.005;208.504;211.435;215.366"/>
    </circle>
    </g>
</svg>
